<svg xmlns="http://www.w3.org/2000/svg" width="620" height="148" viewBox="0 0 620 148" role="img">
<style>
  text { font-family: ui-monospace, SFMono-Regular, Menlo, Monaco, Consolas, monospace; }
  .ink { fill: #57606a; color: #57606a; } .muted { fill: #8c959f; } .line { stroke: #d0d7de; }
  @media (prefers-color-scheme: dark) {
    .ink { fill: #c9d1d9; color: #c9d1d9; } .muted { fill: #8b949e; } .line { stroke: #30363d; }
  }
</style>
<g opacity="0"><text x="0" y="52" class="ink" font-size="48" font-weight="700">479</text>
<text x="0" y="73" class="muted" font-size="12">contributions in the last year</text><animate attributeName="opacity" from="0" to="1" begin="0.20s" dur="0.70s" fill="freeze" /></g>
<g opacity="0"><text x="620" y="32" class="ink" text-anchor="end" font-size="18" font-weight="700">91</text>
<text x="620" y="50" class="muted" text-anchor="end" font-size="11">active days</text><animate attributeName="opacity" from="0" to="1" begin="0.48s" dur="0.70s" fill="freeze" /></g>
<clipPath id="contributions-chart"><rect x="0.0" y="84.0" width="0" height="46.0"><animate attributeName="width" from="0" to="620.0" begin="0.84s" dur="2.50s" fill="freeze" /></rect></clipPath><g clip-path="url(#contributions-chart)">
<polyline points="0.0,128.0 11.9,128.0 23.8,128.0 35.8,128.0 47.7,128.0 59.6,122.0 71.5,116.1 83.5,111.2 95.4,120.9 107.3,113.3 119.2,128.0 131.2,128.0 143.1,128.0 155.0,128.0 166.9,126.4 178.8,127.5 190.8,117.1 202.7,112.3 214.6,128.0 226.5,127.5 238.5,128.0 250.4,116.1 262.3,110.1 274.2,117.7 286.2,123.7 298.1,122.6 310.0,119.3 321.9,127.5 333.8,123.1 345.8,90.0 357.7,110.1 369.6,124.7 381.5,109.5 393.5,126.4 405.4,123.1 417.3,127.5 429.2,123.7 441.2,124.2 453.1,126.4 465.0,126.9 476.9,126.9 488.8,126.4 500.8,128.0 512.7,127.5 524.6,128.0 536.5,119.3 548.5,126.4 560.4,126.9 572.3,128.0 584.2,128.0 596.2,128.0 608.1,128.0 620.0,128.0" fill="none" class="ink" stroke="currentColor" stroke-width="2" stroke-linejoin="round" />
<line x1="0" y1="128" x2="620" y2="128" class="line" /></g><rect y="84.0" width="2" height="46.0" class="ink" opacity="0"><animate attributeName="x" from="0.0" to="620.0" begin="0.84s" dur="2.50s" fill="freeze" /><set attributeName="opacity" to=".55" begin="0.84s" /><set attributeName="opacity" to="0" begin="3.34s" /></rect>
</svg>