<svg xmlns="http://www.w3.org/2000/svg" width="620" height="148" viewBox="0 0 620 148" role="img">
<style>
  text { font-family: ui-monospace, SFMono-Regular, Menlo, Monaco, Consolas, monospace; }
  .ink { fill: #57606a; color: #57606a; } .muted { fill: #8c959f; } .line { stroke: #d0d7de; }
  @media (prefers-color-scheme: dark) {
    .ink { fill: #c9d1d9; color: #c9d1d9; } .muted { fill: #8b949e; } .line { stroke: #30363d; }
  }
</style>
<g opacity="0"><text x="0" y="52" class="ink" font-size="48" font-weight="700">479</text>
<text x="0" y="73" class="muted" font-size="12">contributions in the last year</text><animate attributeName="opacity" from="0" to="1" begin="0.20s" dur="0.70s" fill="freeze" /></g>
<g opacity="0"><text x="620" y="32" class="ink" text-anchor="end" font-size="18" font-weight="700">91</text>
<text x="620" y="50" class="muted" text-anchor="end" font-size="11">active days</text><animate attributeName="opacity" from="0" to="1" begin="0.48s" dur="0.70s" fill="freeze" /></g>
<clipPath id="contributions-chart"><rect x="0.0" y="84.0" width="0" height="46.0"><animate attributeName="width" from="0" to="620.0" begin="0.84s" dur="2.50s" fill="freeze" /></rect></clipPath><g clip-path="url(#contributions-chart)">
<polyline points="0.0,128.0 11.9,128.0 23.8,128.0 35.8,128.0 47.7,128.0 59.6,128.0 71.5,128.0 83.5,128.0 95.4,128.0 107.3,122.0 119.2,116.1 131.2,111.2 143.1,120.9 155.0,113.3 166.9,128.0 178.8,128.0 190.8,128.0 202.7,128.0 214.6,126.4 226.5,127.5 238.5,117.1 250.4,112.3 262.3,128.0 274.2,127.5 286.2,128.0 298.1,116.1 310.0,110.1 321.9,117.7 333.8,123.7 345.8,122.6 357.7,119.3 369.6,127.5 381.5,123.1 393.5,90.0 405.4,110.1 417.3,124.7 429.2,109.5 441.2,126.4 453.1,123.1 465.0,127.5 476.9,123.7 488.8,124.2 500.8,126.4 512.7,126.9 524.6,126.9 536.5,126.4 548.5,128.0 560.4,127.5 572.3,128.0 584.2,119.3 596.2,126.4 608.1,126.9 620.0,128.0" fill="none" class="ink" stroke="currentColor" stroke-width="2" stroke-linejoin="round" />
<line x1="0" y1="128" x2="620" y2="128" class="line" /></g><rect y="84.0" width="2" height="46.0" class="ink" opacity="0"><animate attributeName="x" from="0.0" to="620.0" begin="0.84s" dur="2.50s" fill="freeze" /><set attributeName="opacity" to=".55" begin="0.84s" /><set attributeName="opacity" to="0" begin="3.34s" /></rect>
</svg>